<svg width="25" height="26" viewBox="0 0 25 26" fill="none" xmlns="http://www.w3.org/2000/svg">
<path d="M12.5 0.745117C10.0277 0.745117 7.61099 1.46385 5.55538 2.81044C3.49976 4.15703 1.89761 6.07098 0.951511 8.31027C0.00541605 10.5496 -0.242126 13.0136 0.24019 15.3908C0.722505 17.768 1.91301 19.9517 3.66117 21.6655C5.40933 23.3794 7.63661 24.5466 10.0614 25.0194C12.4861 25.4923 14.9995 25.2496 17.2835 24.3221C19.5676 23.3945 21.5199 21.8238 22.8934 19.8085C24.2669 17.7932 25 15.4238 25 13C25 11.3907 24.6767 9.7971 24.0485 8.31027C23.4203 6.82344 22.4996 5.47247 21.3388 4.33449C20.1781 3.19652 18.8001 2.29383 17.2835 1.67797C15.767 1.0621 14.1415 0.745117 12.5 0.745117ZM12.5 22.8039C10.5222 22.8039 8.58879 22.2289 6.9443 21.1517C5.29981 20.0744 4.01809 18.5432 3.26121 16.7518C2.50433 14.9604 2.3063 12.9891 2.69215 11.0874C3.078 9.18559 4.03041 7.4387 5.42894 6.0676C6.82746 4.6965 8.60929 3.76276 10.5491 3.38448C12.4889 3.00619 14.4996 3.20034 16.3268 3.94238C18.1541 4.68441 19.7159 5.941 20.8147 7.55325C21.9135 9.1655 22.5 11.061 22.5 13C22.5 15.6002 21.4464 18.0938 19.5711 19.9324C17.6957 21.771 15.1522 22.8039 12.5 22.8039ZM17.5 11.7745H13.75V8.09806C13.75 7.77304 13.6183 7.46133 13.3839 7.2315C13.1495 7.00168 12.8315 6.87257 12.5 6.87257C12.1685 6.87257 11.8505 7.00168 11.6161 7.2315C11.3817 7.46133 11.25 7.77304 11.25 8.09806V11.7745H7.5C7.16848 11.7745 6.85054 11.9036 6.61612 12.1335C6.3817 12.3633 6.25 12.675 6.25 13C6.25 13.325 6.3817 13.6367 6.61612 13.8666C6.85054 14.0964 7.16848 14.2255 7.5 14.2255H11.25V17.902C11.25 18.227 11.3817 18.5387 11.6161 18.7685C11.8505 18.9984 12.1685 19.1275 12.5 19.1275C12.8315 19.1275 13.1495 18.9984 13.3839 18.7685C13.6183 18.5387 13.75 18.227 13.75 17.902V14.2255H17.5C17.8315 14.2255 18.1495 14.0964 18.3839 13.8666C18.6183 13.6367 18.75 13.325 18.75 13C18.75 12.675 18.6183 12.3633 18.3839 12.1335C18.1495 11.9036 17.8315 11.7745 17.5 11.7745Z" fill="#606060"/>
</svg>
