<svg width="28" height="28" viewBox="0 0 28 28" fill="none" xmlns="http://www.w3.org/2000/svg">
<path d="M22.4205 5.74463C22.576 5.82796 22.717 5.95006 22.8356 6.10389C22.9651 6.25758 23.0684 6.44411 23.1391 6.65173C23.2098 6.85935 23.2463 7.08356 23.2463 7.31022C23.2463 7.53688 23.2098 7.76108 23.1391 7.9687C23.0684 8.17632 22.9651 8.36285 22.8356 8.51655L12.4266 21.9092C12.308 22.0631 12.1669 22.1852 12.0115 22.2685C11.856 22.3518 11.6893 22.3947 11.5209 22.3947C11.3525 22.3947 11.1858 22.3518 11.0303 22.2685C10.8749 22.1852 10.7338 22.0631 10.6152 21.9092L5.71686 15.6068C5.59374 15.4538 5.49525 15.271 5.42701 15.069C5.35877 14.867 5.32213 14.6497 5.31916 14.4295C5.3162 14.2093 5.34698 13.9904 5.40975 13.7855C5.47252 13.5806 5.56604 13.3936 5.68497 13.2352C5.80391 13.0768 5.94593 12.95 6.10293 12.8622C6.25993 12.7744 6.42884 12.7273 6.6 12.7235C6.77116 12.7197 6.94123 12.7593 7.1005 12.84C7.25977 12.9208 7.40511 13.0411 7.52824 13.1941L11.5209 18.3477L21.0243 6.10389C21.1428 5.95006 21.2839 5.82796 21.4394 5.74463C21.5948 5.66131 21.7615 5.61841 21.9299 5.61841C22.0983 5.61841 22.2651 5.66131 22.4205 5.74463Z" fill="#606060"/>
<path fill-rule="evenodd" clip-rule="evenodd" d="M4.33514 0.671082C2.12601 0.671082 0.335144 2.46194 0.335144 4.67108V23.3421C0.335144 25.5513 2.12601 27.3421 4.33515 27.3421H23.2342C25.4433 27.3421 27.2342 25.5513 27.2342 23.3421V4.67108C27.2342 2.46194 25.4433 0.671082 23.2342 0.671082H4.33514ZM2.33514 4.67108C2.33514 3.56651 3.23057 2.67108 4.33514 2.67108H23.2342C24.3388 2.67108 25.2342 3.56651 25.2342 4.67108V23.3421C25.2342 24.4467 24.3388 25.3421 23.2342 25.3421H4.33515C3.23058 25.3421 2.33514 24.4467 2.33514 23.3421V4.67108Z" fill="#606060"/>
</svg>
