<svg width="25" height="25" viewBox="0 0 25 25" fill="none" xmlns="http://www.w3.org/2000/svg">
<path d="M25 6.54953C25.0009 6.38504 24.9694 6.22197 24.9072 6.06968C24.845 5.9174 24.7533 5.77889 24.6375 5.6621L19.3375 0.362494C19.2207 0.246651 19.0822 0.155001 18.9299 0.0927999C18.7776 0.0305988 18.6145 -0.000930154 18.45 2.08913e-05C18.2855 -0.000930154 18.1224 0.0305988 17.9701 0.0927999C17.8178 0.155001 17.6793 0.246651 17.5625 0.362494L0.36252 17.5612C0.246669 17.678 0.155012 17.8165 0.0928067 17.9688C0.030601 18.1211 -0.000930222 18.2841 2.08928e-05 18.4486V23.7482C2.08928e-05 24.0797 0.131717 24.3977 0.366137 24.6321C0.600557 24.8665 0.918499 24.9982 1.25002 24.9982H6.55001C6.72492 25.0077 6.89988 24.9803 7.06353 24.9179C7.22719 24.8554 7.3759 24.7593 7.50001 24.6357L21.0875 10.9742L24.6375 7.49946C24.7516 7.37832 24.8445 7.2389 24.9125 7.08699C24.9245 6.98736 24.9245 6.88664 24.9125 6.78701C24.9183 6.72883 24.9183 6.67021 24.9125 6.61203L25 6.54953ZM6.03751 22.4983H2.50002V18.9611L14.9125 6.54953L18.45 10.0868L6.03751 22.4983ZM20.2125 8.3244L16.675 4.78716L18.45 3.0248L21.975 6.54953L20.2125 8.3244Z" fill="#404040"/>
</svg>
