<svg width="25" height="26" viewBox="0 0 25 26" fill="none" xmlns="http://www.w3.org/2000/svg">
<path d="M21.25 0.725464H3.75C2.75544 0.725464 1.80161 1.11281 1.09835 1.80228C0.395088 2.49175 2.26098e-07 3.42687 2.26098e-07 4.40193V5.83576C-0.000179009 6.34181 0.106208 6.84246 0.3125 7.30634V7.37987C0.4891 7.77322 0.73924 8.13068 1.05 8.4338L8.75 15.9338V24.0098C8.74957 24.218 8.80329 24.423 8.90609 24.6052C9.00888 24.7875 9.15736 24.9411 9.3375 25.0514C9.53642 25.1723 9.76597 25.236 10 25.2353C10.1957 25.2341 10.3883 25.1879 10.5625 25.1005L15.5625 22.6495C15.7686 22.5476 15.942 22.3918 16.0633 22.1993C16.1847 22.0068 16.2493 21.7851 16.25 21.5588V15.9338L23.9 8.4338C24.2108 8.13068 24.4609 7.77322 24.6375 7.37987V7.30634C24.861 6.84609 24.9845 6.34529 25 5.83576V4.40193C25 3.42687 24.6049 2.49175 23.9016 1.80228C23.1984 1.11281 22.2446 0.725464 21.25 0.725464ZM14.1125 14.5612C13.9966 14.6758 13.905 14.8116 13.8428 14.9609C13.7806 15.1102 13.749 15.2701 13.75 15.4313V20.799L11.25 22.0245V15.4313C11.2509 15.2701 11.2194 15.1102 11.1572 14.9609C11.095 14.8116 11.0033 14.6758 10.8875 14.5612L4.2625 8.0784H20.7375L14.1125 14.5612ZM22.5 5.62742H2.5V4.40193C2.5 4.07691 2.6317 3.76521 2.86612 3.53538C3.10054 3.30556 3.41848 3.17644 3.75 3.17644H21.25C21.5815 3.17644 21.8995 3.30556 22.1339 3.53538C22.3683 3.76521 22.5 4.07691 22.5 4.40193V5.62742Z" fill="#606060"/>
</svg>
