<svg width="21" height="13" viewBox="0 0 21 13" fill="none" xmlns="http://www.w3.org/2000/svg">
<path d="M1.10094 2.55254H19.0283C19.2924 2.55254 19.5457 2.44857 19.7325 2.2635C19.9193 2.07843 20.0242 1.82743 20.0242 1.5657C20.0242 1.30397 19.9193 1.05297 19.7325 0.867897C19.5457 0.682828 19.2924 0.578857 19.0283 0.578857H1.10094C0.836797 0.578857 0.58347 0.682828 0.396691 0.867897C0.209912 1.05297 0.10498 1.30397 0.10498 1.5657C0.10498 1.82743 0.209912 2.07843 0.396691 2.2635C0.58347 2.44857 0.836797 2.55254 1.10094 2.55254ZM19.0283 10.4473H1.10094C0.836797 10.4473 0.58347 10.5512 0.396691 10.7363C0.209912 10.9214 0.10498 11.1724 0.10498 11.4341C0.10498 11.6958 0.209912 11.9469 0.396691 12.1319C0.58347 12.317 0.836797 12.421 1.10094 12.421H19.0283C19.2924 12.421 19.5457 12.317 19.7325 12.1319C19.9193 11.9469 20.0242 11.6958 20.0242 11.4341C20.0242 11.1724 19.9193 10.9214 19.7325 10.7363C19.5457 10.5512 19.2924 10.4473 19.0283 10.4473ZM19.0283 5.51307H1.10094C0.836797 5.51307 0.58347 5.61704 0.396691 5.80211C0.209912 5.98718 0.10498 6.23818 0.10498 6.49991C0.10498 6.76164 0.209912 7.01264 0.396691 7.19771C0.58347 7.38278 0.836797 7.48675 1.10094 7.48675H19.0283C19.2924 7.48675 19.5457 7.38278 19.7325 7.19771C19.9193 7.01264 20.0242 6.76164 20.0242 6.49991C20.0242 6.23818 19.9193 5.98718 19.7325 5.80211C19.5457 5.61704 19.2924 5.51307 19.0283 5.51307Z" fill="#282828"/>
</svg>
