<svg width="26" height="26" viewBox="0 0 26 26" fill="none" xmlns="http://www.w3.org/2000/svg">
<path d="M25.0892 8.91083L16.5892 0.410833C16.4586 0.283403 16.3047 0.182386 16.1358 0.113333C15.9602 0.0419573 15.7729 0.00353894 15.5833 0H4.25C3.12283 0 2.04183 0.447767 1.2448 1.2448C0.447767 2.04183 0 3.12283 0 4.25V21.25C0 22.3772 0.447767 23.4582 1.2448 24.2552C2.04183 25.0522 3.12283 25.5 4.25 25.5H21.25C22.3772 25.5 23.4582 25.0522 24.2552 24.2552C25.0522 23.4582 25.5 22.3772 25.5 21.25V9.91667C25.5011 9.73022 25.4653 9.5454 25.3948 9.3728C25.3243 9.2002 25.2205 9.04321 25.0892 8.91083ZM8.5 2.83333H14.1667V5.66667H8.5V2.83333ZM17 22.6667H8.5V18.4167C8.5 18.0409 8.64926 17.6806 8.91493 17.4149C9.18061 17.1493 9.54094 17 9.91667 17H15.5833C15.9591 17 16.3194 17.1493 16.5851 17.4149C16.8507 17.6806 17 18.0409 17 18.4167V22.6667ZM22.6667 21.25C22.6667 21.6257 22.5174 21.9861 22.2517 22.2517C21.9861 22.5174 21.6257 22.6667 21.25 22.6667H19.8333V18.4167C19.8333 17.2895 19.3856 16.2085 18.5885 15.4115C17.7915 14.6144 16.7105 14.1667 15.5833 14.1667H9.91667C8.7895 14.1667 7.70849 14.6144 6.91146 15.4115C6.11443 16.2085 5.66667 17.2895 5.66667 18.4167V22.6667H4.25C3.87428 22.6667 3.51394 22.5174 3.24827 22.2517C2.98259 21.9861 2.83333 21.6257 2.83333 21.25V4.25C2.83333 3.87428 2.98259 3.51394 3.24827 3.24827C3.51394 2.98259 3.87428 2.83333 4.25 2.83333H5.66667V7.08333C5.66667 7.45906 5.81592 7.81939 6.0816 8.08507C6.34728 8.35074 6.70761 8.5 7.08333 8.5H15.5833C15.9591 8.5 16.3194 8.35074 16.5851 8.08507C16.8507 7.81939 17 7.45906 17 7.08333V4.83083L22.6667 10.4975V21.25Z" fill="#404040"/>
</svg>
